<svg width="45" height="45" viewBox="0 0 526 526" fill="none" xmlns="http://www.w3.org/2000/svg">
<g id="avatar" clip-path="url(#clip0)">
<path id="Vector" d="M526 263C526.047 298.602 518.84 333.841 504.82 366.566L503.948 368.573C480.232 422.527 439.109 466.969 387.155 494.793C335.201 522.617 275.417 532.216 217.364 522.055C215.784 521.775 214.208 521.484 212.633 521.183C196.365 518.03 180.436 513.332 165.06 507.154C162.562 506.15 160.082 505.11 157.621 504.034C155.94 503.303 154.26 502.548 152.594 501.77C107.044 480.658 68.4774 446.965 41.4414 404.661C14.4055 362.357 0.0267408 313.205 0 263C0 117.751 117.751 0 263 0C408.249 0 526 117.751 526 263Z" fill="#6C63FF"/>
<path id="Vector_2" opacity="0.2" d="M217.364 522.055C215.784 521.775 214.208 521.484 212.633 521.184C211.606 491.374 208.081 430.192 196.059 366.115C189.485 331.045 180.357 295.097 167.698 262.961C163.36 251.842 158.406 240.973 152.859 230.405C140.067 206.245 124.552 185.905 105.737 172.125L108.507 168.343C124.155 179.813 138.218 195.914 150.696 216.648C154.439 222.857 158.033 229.482 161.48 236.521C165.176 244.053 168.701 252.049 172.055 260.51C174.195 265.895 176.262 271.466 178.256 277.224C186.94 302.224 194.322 330.75 200.401 362.8C201.748 369.881 203.029 377.135 204.245 384.564C213.668 442.12 216.508 495.335 217.364 522.055Z" fill="black"/>
<path id="Vector_3" opacity="0.2" d="M157.621 504.034C155.94 503.303 154.26 502.548 152.594 501.77C150.968 484.107 147.98 462.195 142.518 441.396C140.126 432.055 137.054 422.901 133.329 414.007C127.096 399.418 119.027 387.015 108.593 379.366L111.363 375.592C122.287 383.591 130.714 396.235 137.227 411.027C144.564 427.694 149.459 447.092 152.719 465.627C155.139 479.391 156.664 492.689 157.621 504.034Z" fill="black"/>
<path id="Vector_4" opacity="0.2" d="M79.5705 172.016C92.5007 172.016 102.983 161.534 102.983 148.604C102.983 135.674 92.5007 125.192 79.5705 125.192C66.6404 125.192 56.1584 135.674 56.1584 148.604C56.1584 161.534 66.6404 172.016 79.5705 172.016Z" fill="black"/>
<path id="Vector_5" opacity="0.2" d="M87.1101 373.553C100.04 373.553 110.522 363.071 110.522 350.141C110.522 337.211 100.04 326.729 87.1101 326.729C74.18 326.729 63.698 337.211 63.698 350.141C63.698 363.071 74.18 373.553 87.1101 373.553Z" fill="black"/>
<path id="Vector_6" opacity="0.2" d="M172.517 187.929C167.553 215.939 178.512 241.301 178.512 241.301C178.512 241.301 197.521 221.251 202.486 193.241C207.451 165.232 196.491 139.869 196.491 139.869C196.491 139.869 177.482 159.92 172.517 187.929Z" fill="black"/>
<path id="Vector_7" opacity="0.2" d="M94.7093 254.418C121.426 264.188 148.272 257.918 148.272 257.918C148.272 257.918 131.802 235.81 105.086 226.041C78.3697 216.272 51.5236 222.541 51.5236 222.541C51.5236 222.541 67.9931 244.649 94.7093 254.418Z" fill="black"/>
<path id="Vector_8" opacity="0.2" d="M90.1789 432.886C108.905 439.734 127.748 435.267 127.748 435.267C127.748 435.267 116.231 419.698 97.5052 412.851C78.7793 406.003 59.9358 410.47 59.9358 410.47C59.9358 410.47 71.453 426.039 90.1789 432.886Z" fill="black"/>
<path id="Vector_9" d="M262.46 321.24C319.087 321.24 364.991 275.336 364.991 218.709C364.991 162.083 319.087 116.178 262.46 116.178C205.834 116.178 159.929 162.083 159.929 218.709C159.929 275.336 205.834 321.24 262.46 321.24Z" fill="#D0CDE1"/>
<path id="Vector_10" d="M222.409 297.21C222.409 297.21 235.225 358.088 235.225 364.496C235.225 370.904 296.103 399.741 296.103 399.741L350.573 390.129L369.797 332.455C369.797 332.455 337.756 284.393 337.756 265.169L222.409 297.21Z" fill="#D0CDE1"/>
<path id="Vector_11" d="M504.82 366.566L503.948 368.573C480.232 422.527 439.109 466.969 387.155 494.793C335.201 522.617 275.417 532.216 217.364 522.055C215.784 521.775 214.208 521.484 212.633 521.183C196.365 518.03 180.436 513.332 165.06 507.154C162.562 506.15 160.082 505.11 157.621 504.034C155.94 503.303 154.26 502.548 152.594 501.77C137.501 494.777 123.107 486.367 109.604 476.652L97.45 441.396L104.282 436.183L118.334 425.453L133.329 414.007L137.227 411.027L196.059 366.115L200.401 362.8L230.981 339.457L230.989 339.449C230.989 339.449 264.058 393.333 312.122 377.312C360.186 361.29 359.135 315.351 359.135 315.351L504.82 366.566Z" fill="#2F2E41"/>
<path id="Vector_12" d="M173.545 136.103C173.545 136.103 206.099 65.5712 268.492 81.8478C330.886 98.1245 366.152 122.539 368.865 146.954C371.578 171.369 367.509 207.992 367.509 207.992C367.509 207.992 360.727 157.805 317.322 168.657C273.918 179.508 206.099 171.369 206.099 171.369L195.247 269.029C195.247 269.029 183.04 251.396 169.476 262.247C155.912 273.098 130.141 157.805 173.545 136.103Z" fill="#2F2E41"/>
<path id="Vector_13" d="M165.06 507.154C162.562 506.151 160.082 505.11 157.621 504.034C155.94 503.303 154.26 502.548 152.594 501.77C127.632 490.195 104.636 474.783 84.4401 456.095C91.5909 446.353 97.45 441.396 97.45 441.396H145.514L152.719 465.627L165.06 507.154Z" fill="#2F2E41"/>
<path id="Vector_14" d="M462.717 361.29L503.948 368.573C492.914 393.71 478.012 416.964 459.783 437.49L462.717 361.29Z" fill="#2F2E41"/>
</g>
<defs>
<clipPath id="clip0">
<rect width="526" height="526" fill="white"/>
</clipPath>
</defs>
</svg>
