<svg viewBox="0 0 720 678" fill="none" xmlns="http://www.w3.org/2000/svg">
<g id="scene"  filter="url(#filter0_d)">
<g id="desk">
<path id="Vector" d="M520.326 380.018V565.013L551.27 615.443L553.625 619.279H675.722L678.189 380.018H520.326Z" fill="#E6E6E6"/>
<path id="Vector_2" opacity="0.1" d="M520.326 380.018V565.013L551.27 615.443L553.169 380.018H520.326Z" fill="black"/>
<path id="Vector_3" d="M225.566 375.084V560.08L194.622 610.51L192.267 614.345H70.17L67.703 375.084H225.566Z" fill="#E6E6E6"/>
<path id="Vector_4" opacity="0.1" d="M225.566 375.084V560.08L194.622 610.51L192.723 375.084H225.566Z" fill="black"/>
<path id="Vector_5" d="M715.188 371.385V382.484H51.67V366.451L113.335 334.385H660.923L715.188 371.385Z" fill="#E6E6E6"/>
<path id="Vector_6" opacity="0.1" d="M715.188 371.385V382.484H51.67V366.451L715.188 371.385Z" fill="black"/>
<path id="Vector_7" d="M146.635 426.883H117.035L104.702 418.25H160.201L146.635 426.883Z" fill="#3F3D56"/>
<path id="Vector_8" d="M146.635 462.649H117.035L104.702 454.016H160.201L146.635 462.649Z" fill="#3F3D56"/>
<path id="Vector_9" d="M146.635 513.215H117.035L104.702 504.581H160.201L146.635 513.215Z" fill="#3F3D56"/>
<path id="Vector_10" d="M146.635 563.78H117.035L104.702 555.147H160.201L146.635 563.78Z" fill="#3F3D56"/>
<path id="Vector_11" d="M599.257 431.816H628.857L641.19 423.183H585.691L599.257 431.816Z" fill="#3F3D56"/>
<path id="Vector_12" d="M599.257 467.582H628.857L641.19 458.949H585.691L599.257 467.582Z" fill="#3F3D56"/>
<path id="Vector_13" d="M599.257 518.148H628.857L641.19 509.515H585.691L599.257 518.148Z" fill="#3F3D56"/>
<path id="Vector_14" d="M599.257 568.713H628.857L641.19 560.08H585.691L599.257 568.713Z" fill="#3F3D56"/>
</g>
<g id="setup">
<path id="Vector_15" d="M619.414 120.456H370.228C368.991 120.456 367.765 120.7 366.622 121.173C365.478 121.647 364.439 122.341 363.564 123.216C362.689 124.091 361.995 125.13 361.522 126.274C361.048 127.417 360.804 128.643 360.805 129.88V297.738C360.804 298.975 361.048 300.201 361.522 301.344C361.995 302.488 362.689 303.527 363.564 304.402C364.439 305.277 365.478 305.971 366.622 306.445C367.765 306.918 368.991 307.162 370.228 307.162H464.821L461.277 329.788C461.277 329.788 441.025 340.547 455.265 340.864C469.505 341.18 536.593 340.864 536.593 340.864C536.593 340.864 549.567 340.864 528.998 329.472L525.664 307.162H619.414C620.651 307.162 621.877 306.918 623.02 306.445C624.164 305.971 625.203 305.277 626.078 304.402C626.953 303.527 627.647 302.488 628.121 301.344C628.594 300.201 628.838 298.975 628.838 297.738V129.88C628.838 128.643 628.594 127.417 628.121 126.274C627.647 125.13 626.953 124.091 626.078 123.216C625.203 122.341 624.164 121.647 623.02 121.173C621.877 120.7 620.651 120.456 619.414 120.456V120.456Z" fill="#3F3D56"/>
<path id="Vector_16" d="M619.819 130.424H369.823V270.295H619.819V130.424Z" fill="#F2F2F2"/>
<path id="Vector_17" d="M494.821 127.576C495.695 127.576 496.403 126.868 496.403 125.994C496.403 125.12 495.695 124.412 494.821 124.412C493.947 124.412 493.239 125.12 493.239 125.994C493.239 126.868 493.947 127.576 494.821 127.576Z" fill="#F2F2F2"/>
<path id="Vector_18" d="M494.821 300.358C498.142 300.358 500.834 297.666 500.834 294.346C500.834 291.025 498.142 288.333 494.821 288.333C491.5 288.333 488.809 291.025 488.809 294.346C488.809 297.666 491.5 300.358 494.821 300.358Z" fill="#F2F2F2"/>
<path id="Vector_19" d="M485.452 357.952V361.117H315.202V358.585L315.436 357.952L319.632 346.56H481.971L485.452 357.952Z" fill="#3F3D56"/>
<path id="Vector_20" d="M550.97 354.854C550.659 356.18 549.489 357.579 546.843 358.901C537.35 363.648 518.046 357.636 518.046 357.636C518.046 357.636 503.173 355.104 503.173 348.459C503.59 348.173 504.026 347.914 504.477 347.683C508.468 345.572 521.702 340.361 545.167 347.904C546.896 348.447 548.44 349.458 549.628 350.827C550.154 351.344 550.55 351.979 550.783 352.679C551.016 353.379 551.08 354.124 550.97 354.854Z" fill="#3F3D56"/>
<path id="Vector_21" opacity="0.1" d="M550.97 354.854C539.35 359.306 528.992 359.639 518.363 352.256C514.343 349.284 509.476 347.681 504.477 347.683C508.468 345.572 521.702 340.361 545.167 347.904C546.896 348.447 548.44 349.458 549.628 350.827C550.154 351.344 550.55 351.979 550.783 352.679C551.016 353.379 551.08 354.124 550.97 354.854Z" fill="black"/>
<path id="Vector_22" d="M536.4 352.256C538.672 352.256 540.514 351.689 540.514 350.99C540.514 350.291 538.672 349.724 536.4 349.724C534.128 349.724 532.286 350.291 532.286 350.99C532.286 351.689 534.128 352.256 536.4 352.256Z" fill="#F2F2F2"/>
<path id="Vector_23" opacity="0.1" d="M485.452 357.952V361.117H315.202V358.585L315.436 357.952H485.452Z" fill="black"/>
</g>
<g id="character">
<path id="Vector_24" d="M98.6615 0.00015845C96.9336 -0.141706 95.2035 0.244799 93.7002 1.10846C92.2242 2.11926 91.2939 3.89007 90.3443 5.53792C86.7136 11.9135 81.7985 17.4657 75.9101 21.8426C71.6211 24.9846 66.1684 28.9022 66.9022 34.6953C67.2893 36.6084 67.996 38.4425 68.9927 40.1208C72.9493 48.1078 83.7463 54.28 82.6843 63.3939C86.6153 56.8129 81.3573 53.5588 85.2883 46.978C87.1604 43.844 90.4124 40.3063 93.2388 42.2745C94.1852 42.9335 94.8066 44.1154 95.792 44.6936C98.1432 46.0733 100.645 43.4356 102.726 41.5673C109.903 35.1247 120.109 36.8125 129.04 38.8199C133.256 39.7675 137.887 41.0109 140.379 45.0406C143.656 50.3388 137.266 56.0609 135.651 62.0511C135.52 62.5615 135.513 63.0962 135.633 63.6096C135.753 64.1229 135.996 64.5996 136.34 64.9988C136.684 65.398 137.12 65.7079 137.61 65.902C138.1 66.0961 138.63 66.1685 139.154 66.1132C141.834 65.8489 145.009 65.6322 145.167 64.4563C148.539 64.5763 152.67 64.1944 154.114 60.6838C154.556 59.2947 154.789 57.848 154.807 56.3906C155.337 50.4934 157.84 45.1134 159.498 39.5006C161.156 33.8879 161.877 27.3101 159.079 22.3338C158.08 20.6781 156.845 19.1771 155.413 17.8783C139.534 2.51152 118.657 -0.0226516 98.6615 0.00015845Z" fill="#2F2E41"/>
<path id="Vector_25" d="M86.1377 74.9052C86.1377 74.9052 89.5911 103.684 76.9286 105.986C64.2661 108.288 88.4399 147.427 88.4399 147.427L145.997 154.334L132.183 108.288C132.183 108.288 122.974 104.835 128.73 81.812C134.485 58.7893 86.1377 74.9052 86.1377 74.9052Z" fill="#FFB8B8"/>
<path id="Vector_26" d="M51.028 569.318L55.633 632.631H79.806L72.9 569.318H51.028Z" fill="#FFB8B8"/>
<path id="Vector_27" d="M228.303 449.6L231.756 502.552L258.233 491.041L247.872 447.298L228.303 449.6Z" fill="#FFB8B8"/>
<path id="Vector_28" d="M33.761 327.58C33.761 327.58 34.9121 394.345 41.819 416.217C48.7259 438.089 47.5747 439.24 46.4236 442.693C45.2724 446.147 44.1213 443.844 44.1213 449.6C44.1213 455.356 41.819 546.295 44.1213 554.353C46.4235 562.411 37.2145 576.225 44.1213 577.376C51.0281 578.527 83.2599 577.376 84.411 570.469C85.5622 563.563 75.202 561.26 79.8065 556.656C84.4111 552.051 91.3179 457.658 91.3179 457.658L107.434 392.043L137.363 357.509H200.676L220.245 433.484C220.245 433.484 212.187 455.356 217.943 455.356C223.699 455.356 258.233 462.263 258.233 436.938C258.233 411.613 246.721 336.789 244.419 334.486C242.117 332.184 245.57 324.126 242.117 320.673C238.663 317.219 198.374 293.046 183.409 288.441C168.444 283.836 147.451 278.356 147.451 278.356L33.761 327.58Z" fill="#2F2E41"/>
<path id="Vector_29" d="M258.233 481.832C258.233 481.832 240.966 476.076 232.908 493.343C224.85 510.61 228.303 515.215 228.303 515.215C228.303 515.215 254.779 524.424 259.384 519.819C261.387 517.816 267.748 517.12 274.296 516.973C284.269 516.749 286.923 502.64 277.504 499.354C277.223 499.256 276.939 499.171 276.651 499.099C267.442 496.797 258.233 481.832 258.233 481.832Z" fill="#2F2E41"/>
<path id="Vector_30" d="M112.038 93.899C131.111 93.899 146.572 78.4375 146.572 59.3649C146.572 40.2922 131.111 24.8308 112.038 24.8308C92.9656 24.8308 77.5042 40.2922 77.5042 59.3649C77.5042 78.4375 92.9656 93.899 112.038 93.899Z" fill="#FFB8B8"/>
<path id="Vector_31" d="M67.144 120.375C67.144 120.375 123.55 131.886 137.363 113.468C151.177 95.0501 156.933 165.269 156.933 165.269L163.839 238.942L153.479 279.232C153.479 279.232 99.3758 322.975 82.1087 326.428C64.8417 329.882 38.3655 332.184 38.3655 332.184C38.3655 332.184 46.4236 204.408 46.4236 202.106C46.4236 199.803 67.144 120.375 67.144 120.375Z" fill="#6C63FF"/>
<path id="Vector_32" d="M84.2983 98.7859C84.2983 98.7859 71.7485 91.5967 68.2951 98.5035C64.8417 105.41 32.6099 122.677 29.1565 122.677C25.7031 122.677 36.0633 218.222 31.4587 229.733C26.8542 241.244 4.98261 325.277 17.6451 332.184C30.3076 339.091 21.0985 325.277 33.761 342.544C46.4235 359.811 108.585 359.811 112.038 352.905C115.492 345.998 84.411 294.197 90.1667 245.849C95.9224 197.501 105.131 130.735 97.0735 121.526C89.0156 112.317 84.2983 98.7859 84.2983 98.7859Z" fill="#2F2E41"/>
<path id="Vector_33" d="M125.852 106.561L127.455 101.043C127.455 101.043 175.351 116.922 177.653 127.282C179.955 137.642 178.804 210.164 170.746 215.919C162.688 221.675 151.177 230.884 159.235 244.698C167.293 258.511 176.502 273.476 183.409 274.627C190.316 275.778 202.978 283.836 199.525 291.894C196.071 299.952 154.63 284.988 154.63 284.988C154.63 284.988 127.003 264.267 128.154 232.035C129.305 199.803 125.852 106.561 125.852 106.561Z" fill="#2F2E41"/>
<path id="Vector_34" d="M166.142 242.396L138.514 294.197C138.514 294.197 98.2246 335.638 121.247 340.242C144.27 344.847 156.933 302.255 156.933 302.255L186.862 259.663L166.142 242.396Z" fill="#FFB8B8"/>
<path id="Vector_35" d="M100.344 9.03593C98.9518 8.93279 97.5575 9.20322 96.3051 9.81927C95.1726 10.6463 94.2393 11.716 93.5733 12.95C90.5029 17.5685 86.5005 21.4939 81.8232 24.474C78.3318 26.6948 73.893 29.4637 74.4904 33.5582C74.8146 34.931 75.3917 36.2314 76.1922 37.3929C79.4241 43.0951 80.7108 49.6949 79.8574 56.1936L89.4575 42.2396C90.9814 40.0245 93.6287 37.5241 95.9296 38.9151C96.6999 39.3809 97.2058 40.2163 98.0079 40.625C99.9219 41.6002 101.958 39.7359 103.652 38.4153C109.495 33.8617 117.803 35.0547 125.073 36.4735C128.505 37.1433 132.275 38.022 134.304 40.8702C137.676 45.6033 134.155 52.4423 136.123 57.9102C136.674 57.5246 137.141 57.0322 137.498 56.4624C137.855 55.8926 138.095 55.2569 138.201 54.593C140.946 54.6779 144.309 54.408 145.485 51.9267C145.842 50.9542 146.033 49.9283 146.049 48.8923C146.48 44.7242 148.518 40.9216 149.867 36.9546C151.217 32.9876 151.804 28.3384 149.526 24.8212C148.693 23.6295 147.687 22.5682 146.542 21.672C133.616 10.8109 116.621 9.01981 100.344 9.03593Z" fill="#2F2E41"/>
<path id="Vector_36" d="M166.142 122.677L176.867 125.524C176.867 125.524 201.827 189.443 196.071 233.186C190.316 276.93 186.862 267.721 186.862 267.721C186.862 267.721 177.653 247 156.933 251.605L166.142 122.677Z" fill="#2F2E41"/>
<path id="Vector_37" d="M52.6229 624.263C49.847 628.036 50.4035 633.428 47.9446 637.414C45.8132 640.869 41.7962 642.681 39.1302 645.743C38.2795 646.76 37.5212 647.851 36.8641 649.003C34.391 653.145 32.3808 658.454 34.8165 662.619C36.7758 665.969 40.8943 667.279 44.6715 668.171C49.4455 669.299 54.4058 670.202 59.235 669.34C64.0642 668.478 68.7838 665.521 70.5057 660.927C70.8441 659.772 71.2464 658.637 71.7108 657.527C74.3282 652.374 82.5383 652.318 85.217 647.197C87.0917 643.613 85.3684 639.28 83.6459 635.621L78.3848 624.444C76.6389 620.735 69.5611 622.868 65.8714 621.979C61.0591 620.82 56.0848 619.543 52.6229 624.263Z" fill="#2F2E41"/>
<path id="Vector_38" d="M14.1917 265.418L62.5394 340.242C62.5394 340.242 92.4689 378.23 101.678 360.963C110.887 343.696 69.4462 314.917 69.4462 314.917L38.3655 257.36L14.1917 265.418Z" fill="#FFB8B8"/>
<path id="Vector_39" d="M38.3655 124.98L29.1564 122.677C29.1564 122.677 10.7383 128.433 6.13372 152.607C1.52919 176.781 4.98258 273.476 10.7383 274.627C16.4939 275.778 39.1655 257.791 42.7945 261.604C46.4235 265.418 34.9121 245.849 38.3655 235.489C41.8189 225.128 38.3655 124.98 38.3655 124.98Z" fill="#2F2E41"/>
</g>
<g id="particles">
<path id="Rectangle 55" d="M471.159 176.363H441.407V183.525H471.159V176.363Z" fill="#6C63FF"/>
<path id="Rectangle 56" d="M574.191 176.363H563.722V183.525H574.191V176.363Z" fill="#6C63FF"/>
<path id="Rectangle 57" d="M595.127 176.363H584.659V183.525H595.127V176.363Z" fill="#6C63FF"/>
<path id="Rectangle 58" d="M552.703 176.363H481.628V183.525H552.703V176.363Z" fill="#6C63FF"/>
<path id="Rectangle 59" d="M433.693 222.644H403.941V229.807H433.693V222.644Z" fill="#6C63FF"/>
<path id="Rectangle 60" d="M536.725 222.644H526.256V229.807H536.725V222.644Z" fill="#6C63FF"/>
<path id="Rectangle 61" d="M557.661 222.644H547.193V229.807H557.661V222.644Z" fill="#6C63FF"/>
<path id="Rectangle 62" d="M515.237 222.644H444.162V229.807H515.237V222.644Z" fill="#6C63FF"/>
<path id="Rectangle 63" d="M556.56 192.341H526.807V199.503H556.56V192.341Z" fill="#6C63FF"/>
<path id="Rectangle 64" d="M596.78 192.341H567.028V199.503H596.78V192.341Z" fill="#6C63FF"/>
<path id="Rectangle 66" d="M414.409 192.341H403.941V199.503H414.409V192.341Z" fill="#6C63FF"/>
<path id="Rectangle 67" d="M435.346 192.341H424.878V199.503H435.346V192.341Z" fill="#6C63FF"/>
<path id="Rectangle 68" d="M516.89 192.341H445.815V199.503H516.89V192.341Z" fill="#6C63FF"/>
<path id="Rectangle 69" d="M494.851 207.768H465.099V214.931H494.851V207.768Z" fill="#6C63FF"/>
<path id="Rectangle 70" d="M454.63 207.768H424.878V214.931H454.63V207.768Z" fill="#6C63FF"/>
<path id="Rectangle 71" d="M414.409 207.768H403.941V214.931H414.409V207.768Z" fill="#6C63FF"/>
<path id="Rectangle 73" d="M596.78 207.768H586.312V214.931H596.78V207.768Z" fill="#6C63FF"/>
<path id="Rectangle 74" d="M575.843 207.768H504.768V214.931H575.843V207.768Z" fill="#6C63FF"/>
</g>
</g>
<defs>
<filter id="filter0_d" x="0" y="0" width="719.188" height="677.683" filterUnits="userSpaceOnUse" color-interpolation-filters="sRGB">
<feFlood flood-opacity="0" result="BackgroundImageFix"/>
<feColorMatrix in="SourceAlpha" type="matrix" values="0 0 0 0 0 0 0 0 0 0 0 0 0 0 0 0 0 0 127 0"/>
<feOffset dy="4"/>
<feGaussianBlur stdDeviation="2"/>
<feColorMatrix type="matrix" values="0 0 0 0 0 0 0 0 0 0 0 0 0 0 0 0 0 0 0.25 0"/>
<feBlend mode="normal" in2="BackgroundImageFix" result="effect1_dropShadow"/>
<feBlend mode="normal" in="SourceGraphic" in2="effect1_dropShadow" result="shape"/>
</filter>
<clipPath id="clip0">
<rect width="711.188" height="669.683" fill="white" transform="translate(4)"/>
</clipPath>
</defs>
</svg>
